<?xml version="1.0"?>
<svg width="390" height="285" xmlns="http://www.w3.org/2000/svg" xmlns:svg="http://www.w3.org/2000/svg">
 <g class="layer">
  <title>Layer 1</title>
  <path d="m130,192l-15,15l75,75l0,-30l-60,-60z" fill="#3f3f3f" id="svg_16" stroke="#000000"/>
  <path d="m260,192l15,15l-75,75l0,-30l60,-60z" fill="#3f3f3f" id="svg_15" stroke="#000000"/>
  <path d="m40,12l-40,40l100,100l-40,40l30,30l40,-40l60,60l0,-80l-20,-20l20,-20l0,-60l-50,50l-100,-100z" fill="#3f3f3f" id="svg_18" stroke="#000000"/>
  <path d="m350,12l40,40l-100,100l40,40l-30,30l-40,-40l-60,60l0,-80l20,-20l-20,-20l0,-60l50,50l100,-100z" fill="#3f3f3f" id="svg_17" stroke="#000000" transform="matrix(1 0 0 1 0 0)"/>
  <path d="m260,180l15,15l-75,75l0,-30l60,-60z" fill="rgb(130, 7, 7)" id="path-2" stroke="#000000" transform="matrix(1 0 0 1 0 0)"/>
  <path d="m350,0l40,40l-100,100l40,40l-30,30l-40,-40l-60,60l0,-80l20,-20l-20,-20l0,-60l50,50l100,-100z" fill="rgb(130, 7, 7)" id="path-1" stroke="#000000"/>
  <path d="m40,0l-40,40l100,100l-40,40l30,30l40,-40l60,60l0,-80l-20,-20l20,-20l0,-60l-50,50l-100,-100z" fill="rgb(130, 7, 7)" id="svg_5" stroke="#000000" transform="matrix(1 0 0 1 0 0) matrix(1 0 0 1 0 0)"/>
  <path d="m130,180l-15,15l75,75l0,-30l-60,-60z" fill="rgb(130, 7, 7)" id="svg_1" stroke="#000000"/>
 </g>
</svg>